<svg xmlns="http://www.w3.org/2000/svg" viewBox="0 50 550 170">
    <!-- Background -->
    <rect width="840" height="300" fill="#000B2E"/>
    
    <!-- Earth Group -->
    <g transform="translate(350,140)">
        <!-- Earth's core -->
        <circle r="100" fill="#4B70DD"/>

        <!-- Ocean layer -->
        <ellipse rx="130" ry="100" 
                 fill="none" stroke="#87CEEB" stroke-width="3" 
                 opacity="0.6"/>
        <text x="50" y="-100" fill="#87CEEB" font-size="14">海水面</text>

        <!-- Barycenter point -->
        <circle cx="50" cy="0" r="3" fill="yellow"/>
        <text x="10" y="-10" fill="yellow" font-size="14">バリセンター</text>

        <!-- Earth rotation indicator -->
        <circle cx="50" cy="0" r="20"
            fill="none" stroke="#FF69B4" stroke-width="2" 
            stroke-dasharray="5,5"/>
        <text x="0" y="40" fill="#FF69B4" font-size="14">地球の公転</text>

        <!-- Force vectors at different points -->
        <!-- Right point (nearest to moon) -->
        <g transform="translate(100,0)">
            <!-- Gravitational force - stronger -->
            <path d="M0,0 L70,0" stroke="yellow" stroke-width="2" marker-end="url(#moon-arrow)" stroke-dasharray="3,3"/>
            <!-- Barycenter centrifugal force - constant -->
            <path d="M0,0 L-30,0" stroke="#FFA500" stroke-width="2" marker-end="url(#centrifugal-force-arrow)" stroke-dasharray="3,3"/>
            <!-- Resultant force -->
            <path d="M0,0 L40,0" stroke="lime" stroke-width="2" marker-end="url(#resultant-force-arrow)"/>
            <text x="0" y="-10" fill="white" font-size="12">Point A</text>
            <!-- point -->
            <circle r="4" fill="red"/>
        </g>

        <!-- Left point (furthest from moon) -->
        <g transform="translate(-100,0)">
            <!-- Gravitational force - weaker -->
            <path d="M0,0 L30,0" stroke="yellow" stroke-width="2" marker-end="url(#moon-arrow)" stroke-dasharray="3,3"/>
            <!-- Barycenter centrifugal force - constant -->
            <path d="M0,0 L-70,0" stroke="#FFA500" stroke-width="2" marker-end="url(#centrifugal-force-arrow)" stroke-dasharray="3,3"/>
            <!-- Resultant force -->
            <path d="M0,0 L-40,0" stroke="lime" stroke-width="2" marker-end="url(#resultant-force-arrow)"/>
            <!-- point -->
            <text x="-20" y="-10" fill="white" font-size="12">Point B</text>
            <circle r="3" fill="red"/>
        </g>

    </g>

    <!-- Arrow Marker Definition -->
    <defs>
        <marker id="moon-arrow" markerWidth="10" markerHeight="10" refX="9" refY="5" orient="auto">
            <path d="M0,0 L10,5 L0,10 L2,5 Z" fill="yellow"/>
        </marker>
        <marker id="centrifugal-force-arrow" markerWidth="10" markerHeight="10" refX="9" refY="5" orient="auto">
            <path d="M0,0 L10,5 L0,10 L2,5 Z" fill="#FFA500"/>
        </marker>
        <marker id="resultant-force-arrow" markerWidth="10" markerHeight="10" refX="9" refY="5" orient="auto">
            <path d="M0,0 L10,5 L0,10 L2,5 Z" fill="lime"/>
        </marker>
    </defs>

    <!-- Legend -->
    <g transform="translate(50,50)">
        <path d="M-15,0 L25,0" stroke="yellow" stroke-width="1.5" marker-end="url(#moon-arrow)" stroke-dasharray="3,3"/>
        <text x="30" y="5" fill="white" font-size="14">月の引力</text>
        
        <path d="M-15,30 L25,30" stroke="#FFA500" stroke-width="1.5" marker-end="url(#centrifugal-force-arrow)" stroke-dasharray="3,3"/>
        <text x="30" y="35" fill="white" font-size="14">公転による見かけの遠心力</text>
        
        <path d="M-15,60 L25,60" stroke="lime" stroke-width="1.8" marker-end="url(#resultant-force-arrow)"/>
        <text x="30" y="65" fill="white" font-size="14">合力（潮汐力）</text>
    </g>
</svg>