<svg xmlns="http://www.w3.org/2000/svg" viewBox="0 150 800 200">
    <!-- Background -->
    <rect width="800" height="200" fill="#000B2E"/>
    
    <!-- Stars -->
    <g id="stars">
        <circle cx="100" cy="50" r="1" fill="white" opacity="0.8"/>
        <circle cx="200" cy="75" r="1" fill="white" opacity="0.7"/>
        <circle cx="700" cy="100" r="1" fill="white" opacity="0.9"/>
        <circle cx="600" cy="180" r="1" fill="white" opacity="0.8"/>
        <circle cx="150" cy="150" r="1" fill="white" opacity="0.7"/>
        <circle cx="650" cy="125" r="1" fill="white" opacity="0.9"/>
    </g>

    <!-- Moon -->
    <circle cx="650" cy="100" r="30" fill="#D3D3D3"/>
    <text x="650" y="60" fill="white" text-anchor="middle" font-size="16">月</text>

    <!-- Earth Group -->
    <g id="earth-system">
        <!-- Earth's solid core (represented as circle) -->
        <circle cx="250" cy="100" r="60" fill="#4B70DD"/>
        
        <!-- Earth's rotation marker (meridian line) -->
        <line x1="250" y1="40" x2="250" y2="160" 
              stroke="white" stroke-width="1" stroke-dasharray="4,4"/>

        <!-- Ocean bulge (represented as ellipse) -->
        <ellipse cx="250" cy="100" rx="80" ry="60" 
                 fill="none" stroke="#87CEEB" stroke-width="3" 
                 opacity="0.6"/>
        
        <!-- Arrows indicating tidal force -->
        <!-- Towards Moon -->
        <path d="M310,100 L350,100" stroke="yellow" stroke-width="2" marker-end="url(#r-arrow)"/>
        <path d="M160,100 L190,100" stroke="yellow" stroke-width="2" marker-start="url(#l-arrow)"/>
        <marker id="rotation-arrow" markerWidth="10" markerHeight="10" refX="9" refY="5" orient="auto">
            <path d="M0,0 L10,5 L0,10 L2,5 Z" fill="#90EE90"/>
        </marker>

        <!-- Labels -->
        <text x="250" y="70" fill="white" text-anchor="middle" font-size="16">地球</text>
    </g>

    <!-- Arrow Marker Definition -->
    <defs>
        <marker id="r-arrow" markerWidth="10" markerHeight="10" refX="9" refY="5" orient="auto">
            <path d="M0,0 L10,5 L0,10 L2,5 Z" fill="yellow"/>
        </marker>
        <marker id="l-arrow" markerWidth="10" markerHeight="10" refX="9" refY="5" orient="auto">
            <path d="M10,0 L0,5 L10,10 L8,5 Z" fill="yellow"/>
        </marker>
    </defs>

    <!-- Force Direction Label -->
    <path d="M350,100 L550,100" stroke="white" stroke-width="1" stroke-dasharray="5,5"/>
    <text x="450" y="80" fill="white" text-anchor="middle" font-size="14">引力の方向</text>
</svg>